<svg xmlns="http://www.w3.org/2000/svg" viewBox="0 0 128 128">
  <defs>
    <linearGradient id="bg" x1="16" y1="12" x2="112" y2="118" gradientUnits="userSpaceOnUse">
      <stop stop-color="#dcfce7"/>
      <stop offset="1" stop-color="#bbf7d0"/>
    </linearGradient>
    <linearGradient id="bow" x1="18" y1="16" x2="94" y2="111" gradientUnits="userSpaceOnUse">
      <stop stop-color="#92400e"/>
      <stop offset=".45" stop-color="#d97706"/>
      <stop offset="1" stop-color="#451a03"/>
    </linearGradient>
    <filter id="shadow" x="-20%" y="-20%" width="140%" height="140%">
      <feDropShadow dx="0" dy="6" stdDeviation="4" flood-color="#14532d" flood-opacity=".24"/>
    </filter>
  </defs>
  <rect x="8" y="8" width="112" height="112" rx="22" fill="url(#bg)"/>
  <path d="M42 17c-19 22-19 72 0 94 5-9 9-22 9-47s-4-38-9-47Z" fill="none" stroke="url(#bow)" stroke-width="10" stroke-linecap="round" filter="url(#shadow)"/>
  <path d="M42 20c20 21 21 70 0 88" fill="none" stroke="#f8fafc" stroke-width="3" stroke-linecap="round" opacity=".82"/>
  <path d="M22 65h73" stroke="#0f172a" stroke-width="3" stroke-linecap="round" opacity=".8"/>
  <path d="M39 65h57" stroke="#f8fafc" stroke-width="2" stroke-linecap="round"/>
  <path d="M95 65 68 46l7 15H26v8h49l-7 15Z" fill="#16a34a" filter="url(#shadow)"/>
  <path d="m95 65-27 19 7-15h23Z" fill="#15803d"/>
  <circle cx="101" cy="33" r="8" fill="#86efac"/>
  <circle cx="27" cy="97" r="7" fill="#4ade80"/>
</svg>
