<svg xmlns="http://www.w3.org/2000/svg" viewBox="0 0 128 128">
  <defs>
    <linearGradient id="bg" x1="18" y1="10" x2="112" y2="116" gradientUnits="userSpaceOnUse">
      <stop stop-color="#e0f2fe"/>
      <stop offset="1" stop-color="#fef3c7"/>
    </linearGradient>
    <linearGradient id="ore" x1="34" y1="52" x2="96" y2="115" gradientUnits="userSpaceOnUse">
      <stop stop-color="#fde68a"/>
      <stop offset=".5" stop-color="#f59e0b"/>
      <stop offset="1" stop-color="#92400e"/>
    </linearGradient>
    <filter id="shadow" x="-20%" y="-20%" width="140%" height="140%">
      <feDropShadow dx="0" dy="6" stdDeviation="4" flood-color="#0f172a" flood-opacity=".22"/>
    </filter>
  </defs>
  <rect x="8" y="8" width="112" height="112" rx="22" fill="url(#bg)"/>
  <path d="M31 95 62 58l10 9-31 37c-6 7-16-3-10-9Z" fill="#92400e" filter="url(#shadow)"/>
  <path d="M31 37c19-17 47-18 67-3-21-4-37 0-48 14Z" fill="#475569" filter="url(#shadow)"/>
  <path d="M44 45c15-11 33-12 48-4-19-2-32 2-40 12Z" fill="#cbd5e1"/>
  <path d="M58 76 84 58l27 24-13 32H56L42 92Z" fill="url(#ore)" filter="url(#shadow)"/>
  <path d="m85 58-8 27 21 29 13-32Z" fill="#fbbf24"/>
  <path d="m42 92 35-7-21 29Z" fill="#78350f" opacity=".55"/>
  <circle cx="34" cy="27" r="6" fill="#facc15"/>
  <circle cx="99" cy="51" r="5" fill="#38bdf8"/>
</svg>
