<svg xmlns="http://www.w3.org/2000/svg" viewBox="0 0 128 128">
  <defs>
    <radialGradient id="orb" cx="45%" cy="34%" r="62%">
      <stop stop-color="#f5f3ff"/>
      <stop offset=".36" stop-color="#c4b5fd"/>
      <stop offset=".72" stop-color="#7c3aed"/>
      <stop offset="1" stop-color="#312e81"/>
    </radialGradient>
    <linearGradient id="bg" x1="20" y1="10" x2="112" y2="116" gradientUnits="userSpaceOnUse">
      <stop stop-color="#ede9fe"/>
      <stop offset="1" stop-color="#dbeafe"/>
    </linearGradient>
    <filter id="glow" x="-40%" y="-40%" width="180%" height="180%">
      <feGaussianBlur stdDeviation="4" result="blur"/>
      <feMerge>
        <feMergeNode in="blur"/>
        <feMergeNode in="SourceGraphic"/>
      </feMerge>
    </filter>
  </defs>
  <rect x="8" y="8" width="112" height="112" rx="22" fill="url(#bg)"/>
  <circle cx="69" cy="46" r="28" fill="url(#orb)" filter="url(#glow)"/>
  <path d="M32 102 62 59l13 10-30 43c-6 8-19-2-13-10Z" fill="#7c2d12"/>
  <path d="m54 69 8-12 19 13-8 12Z" fill="#facc15"/>
  <path d="M79 21c5 12 13 19 25 22-12 4-20 11-25 23-4-13-11-20-24-23 13-3 20-10 24-22Z" fill="#a78bfa" opacity=".78"/>
  <path d="M31 32c5 2 9 6 11 12 2-6 6-10 12-12-6-2-10-6-12-12-2 6-6 10-11 12Z" fill="#38bdf8" opacity=".78"/>
  <path d="M98 83c4 2 7 5 9 10 2-5 5-8 10-10-5-2-8-5-10-10-2 5-5 8-9 10Z" fill="#f0abfc"/>
</svg>
