<svg xmlns="http://www.w3.org/2000/svg" viewBox="0 0 128 128">
  <defs>
    <linearGradient id="bg" x1="20" y1="14" x2="108" y2="118" gradientUnits="userSpaceOnUse">
      <stop stop-color="#ffe4c7"/>
      <stop offset="1" stop-color="#fee2e2"/>
    </linearGradient>
    <linearGradient id="steel" x1="36" y1="18" x2="94" y2="104" gradientUnits="userSpaceOnUse">
      <stop stop-color="#f8fafc"/>
      <stop offset=".5" stop-color="#94a3b8"/>
      <stop offset="1" stop-color="#334155"/>
    </linearGradient>
    <linearGradient id="gold" x1="28" y1="46" x2="92" y2="110" gradientUnits="userSpaceOnUse">
      <stop stop-color="#facc15"/>
      <stop offset="1" stop-color="#f97316"/>
    </linearGradient>
    <filter id="shadow" x="-20%" y="-20%" width="140%" height="140%">
      <feDropShadow dx="0" dy="6" stdDeviation="4" flood-color="#7f1d1d" flood-opacity=".25"/>
    </filter>
  </defs>
  <rect x="8" y="8" width="112" height="112" rx="22" fill="url(#bg)"/>
  <path d="M88 13 105 30 70 79 59 68Z" fill="url(#steel)" filter="url(#shadow)"/>
  <path d="m94 23 9 9-35 47-5-5Z" fill="#e2e8f0" opacity=".7"/>
  <path d="M31 95 58 68 72 82 45 109c-7 7-20-6-14-14Z" fill="url(#gold)" filter="url(#shadow)"/>
  <path d="m48 78 14-14 21 21-14 14Z" fill="#7f1d1d"/>
  <path d="m42 84 7-7 22 22-7 7Z" fill="#991b1b" opacity=".75"/>
  <path d="M20 40c13 1 22-5 28-17 2 15 9 24 22 29-15 1-25 8-31 22-1-15-7-26-19-34Z" fill="#fb923c" opacity=".8"/>
</svg>
