<svg xmlns="http://www.w3.org/2000/svg" viewBox="0 0 128 128">
  <defs>
    <linearGradient id="bg" x1="16" y1="12" x2="112" y2="116" gradientUnits="userSpaceOnUse">
      <stop stop-color="#fce7f3"/>
      <stop offset="1" stop-color="#ede9fe"/>
    </linearGradient>
    <linearGradient id="blade" x1="28" y1="20" x2="103" y2="96" gradientUnits="userSpaceOnUse">
      <stop stop-color="#f8fafc"/>
      <stop offset=".55" stop-color="#94a3b8"/>
      <stop offset="1" stop-color="#334155"/>
    </linearGradient>
    <filter id="shadow" x="-20%" y="-20%" width="140%" height="140%">
      <feDropShadow dx="0" dy="6" stdDeviation="4" flood-color="#581c87" flood-opacity=".25"/>
    </filter>
  </defs>
  <rect x="8" y="8" width="112" height="112" rx="22" fill="url(#bg)"/>
  <path d="M65 18 78 50l34 14-34 14-13 32-14-32-34-14 34-14Z" fill="url(#blade)" filter="url(#shadow)"/>
  <path d="M65 31 73 54l24 10-24 10-8 23-10-23-23-10 23-10Z" fill="#7c3aed"/>
  <circle cx="65" cy="64" r="10" fill="#facc15"/>
  <path d="M31 28c10 1 16-4 20-13 2 11 8 17 18 20-11 2-17 8-21 18-1-11-7-19-17-25Z" fill="#22c55e" opacity=".8"/>
  <path d="M91 92c5 1 8-2 10-7 1 6 4 9 10 11-6 1-10 4-12 10-1-6-4-10-8-14Z" fill="#f472b6" opacity=".85"/>
</svg>
