<svg xmlns="http://www.w3.org/2000/svg" viewBox="0 0 128 128">
  <defs>
    <linearGradient id="bg" x1="14" y1="10" x2="116" y2="118" gradientUnits="userSpaceOnUse">
      <stop stop-color="#fff7ed"/>
      <stop offset="1" stop-color="#dcfce7"/>
    </linearGradient>
    <linearGradient id="coin" x1="37" y1="19" x2="91" y2="88" gradientUnits="userSpaceOnUse">
      <stop stop-color="#fef9c3"/>
      <stop offset=".45" stop-color="#facc15"/>
      <stop offset="1" stop-color="#d97706"/>
    </linearGradient>
    <filter id="shadow" x="-20%" y="-20%" width="140%" height="140%">
      <feDropShadow dx="0" dy="6" stdDeviation="4" flood-color="#78350f" flood-opacity=".22"/>
    </filter>
  </defs>
  <rect x="8" y="8" width="112" height="112" rx="22" fill="url(#bg)"/>
  <circle cx="61" cy="49" r="30" fill="url(#coin)" filter="url(#shadow)"/>
  <circle cx="61" cy="49" r="20" fill="none" stroke="#fff7ad" stroke-width="5" opacity=".85"/>
  <path d="M60 25v48M47 36c3-7 23-7 27 1 5 12-29 8-24 20 3 8 22 8 28 1" fill="none" stroke="#92400e" stroke-width="7" stroke-linecap="round"/>
  <path d="M28 82h72c5 0 9 4 9 9v12c0 6-4 10-10 10H29c-6 0-10-4-10-10V91c0-5 4-9 9-9Z" fill="#0f766e" filter="url(#shadow)"/>
  <path d="M28 82h72c5 0 9 4 9 9v4H19v-4c0-5 4-9 9-9Z" fill="#14b8a6"/>
  <path d="M43 82 64 65l21 17Z" fill="#facc15"/>
  <path d="M103 31c4 2 8 6 10 12 2-6 6-10 12-12-6-2-10-6-12-12-2 6-6 10-10 12Z" fill="#22c55e"/>
</svg>
