<svg xmlns="http://www.w3.org/2000/svg" viewBox="0 0 160 96">
  <defs>
    <filter id="glow" x="-40%" y="-80%" width="180%" height="260%">
      <feGaussianBlur stdDeviation="4" result="blur"/>
      <feColorMatrix in="blur" values="0 0 1 0 .12  0 1 0 0 .82  1 0 0 0 1  0 0 0 .75 0"/>
      <feMerge><feMergeNode/><feMergeNode in="SourceGraphic"/></feMerge>
    </filter>
    <linearGradient id="ice" x1="0" x2="1">
      <stop offset="0" stop-color="#f0f9ff"/>
      <stop offset=".38" stop-color="#67e8f9"/>
      <stop offset=".72" stop-color="#60a5fa"/>
      <stop offset="1" stop-color="#7c3aed"/>
    </linearGradient>
  </defs>
  <g filter="url(#glow)">
    <path d="M12 48c28-15 55-20 83-13 25 6 44 20 57 39-28-8-49-6-73 4-28 11-49 2-67-30Z" fill="url(#ice)"/>
    <path d="M42 33 58 5l9 31 31-15-15 29 35 7-35 10 10 25-29-17-19 17 4-29-35-13Z" fill="#e0f2fe" opacity=".86"/>
    <circle cx="39" cy="50" r="8" fill="#eff6ff"/>
    <circle cx="70" cy="45" r="5" fill="#bfdbfe"/>
    <circle cx="101" cy="56" r="6" fill="#dbeafe"/>
  </g>
</svg>
